<?xml version="1.0" encoding="utf-8"?>
<!-- Generator: Adobe Illustrator 22.0.1, SVG Export Plug-In . SVG Version: 6.00 Build 0)  -->
<svg version="1.1" id="Layer_1" xmlns="http://www.w3.org/2000/svg" xmlns:xlink="http://www.w3.org/1999/xlink" x="0px" y="0px"
	 viewBox="0 0 1000 1200" style="enable-background:new 0 0 1000 1200;" xml:space="preserve">
<style type="text/css">
	.st0{fill:#15131B;stroke:#24222A;stroke-width:5;stroke-miterlimit:10;}
</style>
<path class="st0" d="M778.6,980.7H505.5c-21.3,0-38.5-17.2-38.5-38.5V257.8c0-21.3,17.2-38.5,38.5-38.5h273.1
	c21.3,0,38.5,17.2,38.5,38.5v684.4C817.1,963.5,799.8,980.7,778.6,980.7z"/>
<path class="st0" d="M530.2,1035h-312c-24.3,0-44-19.7-44-44V209c0-24.3,19.7-44,44-44h312c24.3,0,44,19.7,44,44v782
	C574.2,1015.3,554.5,1035,530.2,1035z"/>
</svg>
