<?xml version="1.0" encoding="utf-8"?>
<!-- Generator: Adobe Illustrator 22.0.1, SVG Export Plug-In . SVG Version: 6.00 Build 0)  -->
<svg version="1.1" id="Layer_1" xmlns="http://www.w3.org/2000/svg" xmlns:xlink="http://www.w3.org/1999/xlink" x="0px" y="0px"
	 viewBox="0 0 1200 600" style="enable-background:new 0 0 1200 600;" xml:space="preserve">
<style type="text/css">
	.st0{fill:#15131B;stroke:#24222A;stroke-width:5;stroke-miterlimit:10;}
</style>
<path class="st0" d="M1014.6,974.7H741.5c-21.3,0-38.5-17.2-38.5-38.5V251.8c0-21.3,17.2-38.5,38.5-38.5h273.1
	c21.3,0,38.5,17.2,38.5,38.5v684.4C1053.1,957.5,1035.8,974.7,1014.6,974.7z"/>
<path class="st0" d="M459.6,974.7H186.5c-21.3,0-38.5-17.2-38.5-38.5V251.8c0-21.3,17.2-38.5,38.5-38.5h273.1
	c21.3,0,38.5,17.2,38.5,38.5v684.4C498.1,957.5,480.8,974.7,459.6,974.7z"/>
<path class="st0" d="M756.2,975h-312c-24.3,0-44-19.7-44-44V149c0-24.3,19.7-44,44-44h312c24.3,0,44,19.7,44,44v782
	C800.2,955.3,780.5,975,756.2,975z"/>
</svg>
