<?xml version="1.0" encoding="utf-8"?>
<!-- Generator: Adobe Illustrator 22.0.1, SVG Export Plug-In . SVG Version: 6.00 Build 0)  -->
<svg version="1.1" id="Layer_1" xmlns="http://www.w3.org/2000/svg" xmlns:xlink="http://www.w3.org/1999/xlink" x="0px" y="0px"
	 viewBox="0 0 1000 1200" style="enable-background:new 0 0 1000 1200;" xml:space="preserve">
<style type="text/css">
	.st0{fill:#1B1921;stroke:#24222A;stroke-width:5;stroke-miterlimit:10;}
	.st1{fill:#24222A;}
</style>
<path class="st0" d="M422,1106H110c-24.3,0-44-19.7-44-44V280c0-24.3,19.7-44,44-44h312c24.3,0,44,19.7,44,44v782
	C466,1086.3,446.3,1106,422,1106z"/>
<path class="st1" d="M326,1085H206c-1.7,0-3-1.3-3-3l0,0c0-1.7,1.3-3,3-3h120c1.7,0,3,1.3,3,3l0,0C329,1083.7,327.7,1085,326,1085z"
	/>
<path class="st0" d="M890,964H578c-24.3,0-44-19.7-44-44V138c0-24.3,19.7-44,44-44h312c24.3,0,44,19.7,44,44v782
	C934,944.3,914.3,964,890,964z"/>
<path class="st1" d="M794,943H674c-1.7,0-3-1.3-3-3l0,0c0-1.7,1.3-3,3-3h120c1.7,0,3,1.3,3,3l0,0C797,941.7,795.7,943,794,943z"/>
</svg>
